<svg width="62" height="61" viewBox="0 0 62 61" fill="none" xmlns="http://www.w3.org/2000/svg">
<g clip-path="url(#clip0_198_31)">
<path d="M26.4144 25.011C25.8961 21.7494 26.0638 18.4268 26.6582 15.2566C29.6303 12.0255 34.6447 10.1965 38.958 9.73925C38.1349 7.34636 35.3915 3.00261 33.8216 0.838342C33.4558 0.335381 32.8309 0.122003 32.2365 0.274416C22.2382 2.9264 8.4144 11.7206 13.8556 28.6994C15.654 30.6199 18.5194 31.6715 21.3085 32.144C21.7048 28.989 23.6709 26.3218 26.4144 25.011Z" fill="white"/>
<path d="M30.3465 35.8784C31.828 35.8784 33.029 34.6774 33.029 33.1959C33.029 31.7144 31.828 30.5134 30.3465 30.5134C28.8651 30.5134 27.6641 31.7144 27.6641 33.1959C27.6641 34.6774 28.8651 35.8784 30.3465 35.8784Z" fill="white"/>
<path d="M61.6526 24.1881C56.0436 15.5006 43.4086 5.07558 28.9447 15.4854C27.5577 18.0002 27.5425 21.399 28.1064 24.3863C28.8227 24.2034 29.5695 24.1119 30.3469 24.1119C32.6178 24.1119 34.6754 24.935 36.2757 26.3067C39.2325 24.7978 42.4637 23.9138 45.6797 23.5023C49.673 25.3313 52.9649 29.5226 54.733 33.5006C56.7446 31.9764 60.037 28.029 61.6069 25.8647C61.9726 25.377 61.9879 24.7064 61.6526 24.1881Z" fill="white"/>
<path d="M46.1523 25.7579C43.3783 25.2245 40.1929 26.2304 37.5409 27.6479C38.7297 29.1872 39.4308 31.1076 39.4308 33.1957C39.4308 34.4302 39.1869 35.6191 38.7297 36.686C40.7873 38.8959 42.4333 41.4717 43.6984 44.1389C43.1954 48.498 40.2233 52.933 36.9922 55.8443C39.065 57.292 43.8355 59.1973 46.3654 60.0354C46.9447 60.2187 47.585 60.0354 47.9661 59.563C54.5195 51.5464 60.5249 36.3049 46.1523 25.7579Z" fill="white"/>
<path d="M37.8609 38.3018C36.2301 40.7099 33.4714 42.2797 30.3469 42.2797C29.7982 42.2797 29.2495 42.234 28.7161 42.1273C27.2834 44.5659 25.4697 46.7454 23.4578 48.6506C19.1598 49.5195 14.0235 48.056 10.2589 45.8765C9.5121 48.285 9.17676 53.421 9.17676 56.0884C9.17676 56.698 9.55781 57.2465 10.1217 57.4755C19.7695 61.2095 36.1082 62.2155 41.7017 45.2823C41.3969 42.7522 39.7813 40.2831 37.8609 38.3018Z" fill="white"/>
<path d="M21.2933 33.8968C18.3365 33.3176 15.5168 32.205 12.9258 30.7876C10.7768 26.962 10.5786 21.6275 11.4779 17.3752C8.94787 17.421 3.97918 18.686 1.43389 19.509C0.854718 19.6919 0.443204 20.2253 0.412721 20.835C-0.151207 31.1534 3.93346 47.0195 21.7658 47.1109C23.9758 46.09 25.7438 43.956 27.024 41.6546C23.8538 40.4048 21.5676 37.4328 21.2933 33.8968Z" fill="white"/>
</g>
<defs>
<clipPath id="clip0_198_31">
<rect width="62" height="60.1898" fill="white"/>
</clipPath>
</defs>
</svg>
